<?xml version="1.0" ?><!DOCTYPE svg  PUBLIC '-//W3C//DTD SVG 1.1//EN'  'http://www.w3.org/Graphics/SVG/1.1/DTD/svg11.dtd'><svg height="6.82666in" style="shape-rendering:geometricPrecision; text-rendering:geometricPrecision; image-rendering:optimizeQuality; fill-rule:evenodd; clip-rule:evenodd" viewBox="0 0 6.82666 6.82666" width="6.82666in" xml:space="preserve" xmlns="http://www.w3.org/2000/svg" xmlns:xlink="http://www.w3.org/1999/xlink"><defs><style type="text/css">
   <![CDATA[
    .fil5 {fill:#1976D2}
    .fil4 {fill:#64DD17}
    .fil6 {fill:#AB47BC}
    .fil0 {fill:#B8B9B9}
    .fil2 {fill:#F44336}
    .fil3 {fill:#FFEB3B}
    .fil1 {fill:#E8E9E9}
   ]]>
  </style></defs><g id="Layer_x0020_1"><circle class="fil0" cx="3.41333" cy="3.41333" r="3.41333"/><circle class="fil1" cx="3.41333" cy="3.41333" r="3.21667"/><path class="fil0" d="M5.23173 4.29187l-1.56914 0 0.122244 -0.133925c0.186354,-0.204165 1.24007,-1.36334 1.38517,-1.52294l0.088063 -0.0968622 0.0460157 0.122559c0.0874528,0.232917 0.135862,0.477531 0.135862,0.726543 0,0.297713 -0.0635669,0.586862 -0.186882,0.857772l-0.0213268 0.0468543zm-0.0980276 0.172681c-0.37715,0.618169 -1.05294,1.00274 -1.77797,1.00271 -0.233921,-1.1811e-005 -0.465217,-0.0407126 -0.686051,-0.117689l-0.0536654 -0.0187087 0 -0.987976 2.59191 0 -0.0742244 0.121661zm-2.56887 -1.97656l0 2.82352 -0.114827 -0.0555354c-0.642866,-0.310925 -1.17011,-0.947575 -1.17011,-1.68624l0 -0.366681c0,-0.233807 0.0808622,-0.457189 0.175504,-0.667846l0.0212087 -0.0472126 1.08822 0zm-0.98922 -0.171575c0.234228,-0.386835 0.589024,-0.691913 1.00947,-0.859283l0.0516102 -0.0205472 0.0372835 0.041185c0.0624961,0.0690394 0.569563,0.625776 0.752425,0.826154l0.122209 0.133921 -2.04652 0 0.0735276 -0.121429zm2.81482 0.970606c-0.0956378,-0.103988 -1.46689,-1.61098 -1.61441,-1.77316l-0.0881614 -0.0969213 0.126496 -0.0341378c0.17628,-0.0475748 0.358579,-0.0755315 0.541382,-0.0755315 0.785551,0 1.49399,0.433906 1.85307,1.13225l0.0254606 0.0495157 -0.0375945 0.0410748c-0.0620276,0.0677677 -0.596016,0.654929 -0.688091,0.756488l-0.0588386 0.0649016 -0.0593071 -0.0644803z"/><g id="_234547224"><path class="fil2" d="M5.18025 4.21188c0.118752,-0.26089 0.179693,-0.538307 0.179693,-0.82463 0,-0.238307 -0.0460551,-0.472831 -0.130756,-0.698425 -0.0480669,0.0528701 -1.3231,1.45494 -1.38527,1.52306l1.33633 0z" id="_234548544"/><path class="fil3" d="M5.06541 4.42289l-2.3694 0 0 0.85115c0.213343,0.0743661 0.435323,0.113232 0.659724,0.113232 0.696508,5.90551e-005 1.34672,-0.369472 1.70967,-0.964382z" id="_234547008"/><path class="fil4" d="M2.48484 2.56799l0 2.61597c-0.633657,-0.306469 -1.06044,-0.923287 -1.12494,-1.61422l0 -0.366681c0.0204685,-0.219122 0.0771614,-0.431807 0.168476,-0.635063l0.956469 0z" id="_234547632"/><path class="fil5" d="M1.64404 2.35785l1.72327 0c-0.060937,-0.0667756 -0.731764,-0.803331 -0.752642,-0.826394 -0.40276,0.160331 -0.744531,0.452996 -0.970626,0.826394z" id="_234547368"/><path class="fil6" d="M5.13766 2.47611c-0.345331,-0.671606 -1.02624,-1.08883 -1.78193,-1.08883 -0.172047,0 -0.347047,0.0259449 -0.520539,0.0727677 0.0494528,0.0543661 1.58232,1.73826 1.61412,1.77283 0.0306969,-0.0338583 0.667626,-0.73413 0.688346,-0.756768z" id="_234547560"/></g></g></svg>